<?xml version="1.0" standalone="no"?>
<!DOCTYPE svg PUBLIC "-//W3C//DTD SVG 20010904//EN"
 "http://www.w3.org/TR/2001/REC-SVG-20010904/DTD/svg10.dtd">
<svg version="1.0" xmlns="http://www.w3.org/2000/svg"
 width="1000.000000pt" height="1000.000000pt" viewBox="0 0 1000.000000 1000.000000"
 preserveAspectRatio="xMidYMid meet">

<g transform="translate(0.000000,1000.000000) scale(0.100000,-0.100000)"
fill="#000000" stroke="none">
<path d="M4905 9787 c-44 -23 -108 -58 -142 -77 l-63 -35 0 -277 c0 -153 3
-278 8 -278 13 0 146 57 222 95 l74 37 66 -32 c79 -40 220 -100 235 -100 7 0
9 91 7 277 l-3 278 -52 29 c-105 58 -246 126 -259 125 -7 0 -49 -19 -93 -42z"/>
<path d="M4625 8941 c-103 -54 -209 -112 -415 -226 -47 -26 -123 -68 -170 -93
-47 -25 -105 -58 -129 -74 -25 -15 -49 -28 -53 -28 -5 0 -25 -11 -46 -24 -50
-31 -267 -154 -317 -178 -22 -11 -76 -41 -120 -67 -44 -25 -98 -56 -120 -67
l-40 -22 -3 -91 c-2 -82 -1 -92 18 -103 l20 -13 0 -1897 c0 -1887 0 -1898 -20
-1910 -18 -11 -20 -24 -20 -99 l0 -87 249 -125 c137 -69 257 -130 267 -136 11
-5 55 -28 99 -49 44 -22 94 -47 110 -55 17 -9 68 -35 115 -58 47 -23 146 -73
220 -110 300 -150 432 -211 467 -216 46 -6 84 20 113 78 20 38 20 69 20 2794
1 2005 -2 2767 -11 2798 -6 23 -21 53 -32 65 -22 24 -68 52 -84 52 -4 0 -57
-27 -118 -59z m-559 -1312 l29 -30 0 -1487 c0 -1627 3 -1535 -57 -1556 -17 -6
-42 -6 -65 0 l-38 9 -3 1485 c-2 817 0 1509 3 1538 5 42 11 55 28 62 42 17 72
11 103 -21z"/>
<path d="M5126 8991 c-3 -5 -6 -1271 -6 -2815 -1 -2653 0 -2810 17 -2862 13
-43 26 -62 53 -80 44 -30 53 -30 136 4 63 26 852 422 1139 572 66 34 163 85
215 112 52 27 98 54 102 61 4 7 8 47 8 90 0 76 -1 78 -30 95 l-30 17 0 1877 0
1877 30 18 31 18 -3 90 -3 90 -198 98 c-109 54 -201 96 -205 93 -3 -3 -7 -736
-9 -1628 -2 -893 -5 -1710 -6 -1815 -3 -187 -4 -194 -27 -218 -13 -14 -29 -25
-36 -25 -39 0 -39 -25 -42 1901 l-3 1856 -200 102 c-111 56 -203 101 -205 98
-3 -2 -7 -640 -9 -1418 -8 -2254 -12 -2621 -26 -2652 -26 -56 -94 -72 -103
-24 -11 53 -17 717 -18 2112 -1 825 -4 1630 -7 1789 l-6 288 -255 130 c-140
71 -265 136 -277 144 -12 7 -24 10 -27 5z"/>
<path d="M6340 2930 c-229 -36 -406 -205 -472 -449 -30 -109 -29 -314 1 -426
33 -123 76 -200 161 -286 87 -88 161 -128 282 -153 277 -57 531 62 653 305 46
90 65 166 72 289 19 345 -148 622 -425 704 -67 19 -201 27 -272 16z m235 -84
c84 -22 157 -66 221 -131 115 -120 164 -255 164 -454 0 -189 -44 -311 -153
-427 -104 -112 -204 -154 -360 -154 -163 1 -255 36 -358 139 -114 115 -169
259 -169 451 0 281 132 490 358 567 79 26 216 31 297 9z"/>
<path d="M2914 2896 c-3 -8 80 -295 184 -638 l190 -623 36 -3 c30 -3 37 1 45
21 5 13 83 270 172 570 90 301 165 547 168 547 3 0 75 -226 159 -503 84 -276
162 -532 173 -569 l21 -68 39 0 c36 0 39 2 49 38 5 20 88 303 184 627 127 432
171 593 163 603 -6 7 -22 12 -36 10 -24 -3 -31 -22 -191 -560 -91 -306 -167
-559 -170 -561 -3 -3 -81 244 -175 549 -93 305 -175 560 -181 565 -7 6 -28 9
-46 7 l-33 -3 -167 -558 c-91 -308 -168 -561 -170 -563 -2 -2 -80 250 -174
559 l-170 562 -32 3 c-21 2 -34 -2 -38 -12z"/>
<path d="M4662 2898 c-9 -9 -12 -150 -12 -627 0 -339 4 -622 9 -629 5 -8 21
-12 37 -10 l29 3 3 313 2 312 415 0 415 0 0 -315 0 -315 35 0 35 0 -2 638 -3
637 -30 0 -30 0 -3 -287 -2 -288 -415 0 -415 0 -2 288 -3 287 -25 3 c-14 2
-31 -3 -38 -10z"/>
<path d="M2852 1480 c-28 -6 -77 -19 -108 -30 -169 -59 -301 -215 -355 -420
-19 -69 -23 -110 -22 -220 1 -201 34 -310 138 -448 233 -310 748 -268 928 76
59 112 86 253 51 266 -31 12 -50 -11 -63 -78 -36 -182 -154 -320 -322 -376
-54 -19 -81 -21 -174 -18 -102 3 -115 6 -187 40 -190 90 -297 283 -298 535 0
190 52 340 157 454 96 103 202 149 347 149 224 0 394 -114 452 -302 18 -59 36
-74 69 -62 25 10 13 71 -31 162 -60 123 -172 215 -314 256 -68 20 -199 28
-268 16z"/>
<path d="M7002 1480 c-28 -6 -77 -19 -108 -30 -169 -59 -301 -215 -355 -420
-19 -69 -23 -110 -22 -220 1 -201 34 -310 138 -448 233 -310 748 -268 928 76
59 112 86 253 51 266 -31 12 -50 -11 -63 -78 -36 -182 -154 -320 -322 -376
-54 -19 -81 -21 -174 -18 -102 3 -115 6 -187 40 -190 90 -297 283 -298 535 0
190 52 340 157 454 96 103 202 149 347 149 224 0 394 -114 452 -302 18 -59 36
-74 69 -62 25 10 13 71 -31 162 -60 123 -172 215 -314 256 -68 20 -199 28
-268 16z"/>
<path d="M3702 1448 c-9 -9 -12 -150 -12 -627 0 -339 4 -622 8 -629 7 -9 94
-12 403 -10 l394 3 0 30 0 30 -362 3 -363 2 -2 603 -3 602 -25 3 c-14 2 -31
-3 -38 -10z"/>
<path d="M4642 1448 c-9 -9 -12 -150 -12 -627 0 -339 4 -622 9 -629 5 -8 21
-12 37 -10 l29 3 0 635 0 635 -25 3 c-14 2 -31 -3 -38 -10z"/>
<path d="M4992 1448 c-9 -9 -12 -150 -12 -627 0 -339 4 -622 9 -629 5 -8 21
-12 37 -10 l29 3 5 569 5 569 410 -569 c407 -564 411 -569 448 -572 l37 -3 -2
638 -3 638 -30 0 -30 0 -5 -570 -5 -569 -410 569 c-372 518 -413 570 -440 573
-17 2 -36 -3 -43 -10z"/>
<path d="M6242 1448 c-9 -9 -12 -150 -12 -627 0 -339 4 -622 9 -629 5 -8 21
-12 37 -10 l29 3 0 635 0 635 -25 3 c-14 2 -31 -3 -38 -10z"/>
</g>
</svg>
